<svg width="39" height="27" viewBox="0 0 39 27" fill="none" xmlns="http://www.w3.org/2000/svg">
<path d="M19.5 9.81824V17.1819H4.43182C3.25643 17.1819 2.12918 16.8586 1.29805 16.2832C0.466922 15.7078 0 14.9274 0 14.1137V12.8864C0 12.0727 0.466922 11.2923 1.29805 10.7169C2.12918 10.1415 3.25643 9.81824 4.43182 9.81824H19.5Z" fill="#FE724C" fill-opacity="0.51"/>
<path d="M19.5 19.6364V27H4.43182C3.25643 27 2.12918 26.6767 1.29805 26.1013C0.466922 25.5259 0 24.7455 0 23.9318V22.7045C0 21.8908 0.466922 21.1104 1.29805 20.535C2.12918 19.9596 3.25643 19.6364 4.43182 19.6364H19.5Z" fill="#FE724C" fill-opacity="0.51"/>
<path d="M19.5 0V7.36364H4.43182C3.25643 7.36364 2.12918 7.04038 1.29805 6.46499C0.466922 5.88959 0 5.10919 0 4.29545V3.06818C0 2.25445 0.466922 1.47405 1.29805 0.89865C2.12918 0.323254 3.25643 0 4.43182 0H19.5Z" fill="#FE724C" fill-opacity="0.51"/>
<path d="M39 3.06818V4.29545C39 4.69837 38.8854 5.09735 38.6626 5.4696C38.4399 5.84185 38.1135 6.18008 37.702 6.46499C37.2904 6.74989 36.8019 6.97589 36.2642 7.13009C35.7265 7.28428 35.1502 7.36364 34.5682 7.36364H19.5V0H34.5682C35.7436 0 36.8708 0.323254 37.702 0.89865C38.5331 1.47405 39 2.25445 39 3.06818Z" fill="#FE724C"/>
<path d="M39 12.8864V14.1137C39 14.9274 38.5331 15.7078 37.702 16.2832C36.8708 16.8586 35.7436 17.1819 34.5682 17.1819H19.5V9.81824H34.5682C35.7436 9.81824 36.8708 10.1415 37.702 10.7169C38.5331 11.2923 39 12.0727 39 12.8864Z" fill="#FE724C"/>
<path d="M39 22.7045V23.9318C39 24.7455 38.5331 25.5259 37.702 26.1013C36.8708 26.6767 35.7436 27 34.5682 27H19.5V19.6364H34.5682C35.7436 19.6364 36.8708 19.9596 37.702 20.535C38.5331 21.1104 39 21.8908 39 22.7045Z" fill="#FE724C"/>
</svg>
