<svg width="17" height="18" viewBox="0 0 17 18" fill="none" xmlns="http://www.w3.org/2000/svg">
<path d="M15.3954 7.95395C15.3166 7.27374 14.9913 6.64262 14.4773 6.17291C13.9634 5.70321 13.2943 5.42537 12.5888 5.38871V5.18877C12.5895 4.61984 12.474 4.05648 12.2492 3.5309C12.0243 3.00531 11.6946 2.52791 11.2787 2.12623C10.8637 1.72332 10.3707 1.40383 9.8279 1.18604C9.28512 0.968246 8.70332 0.856455 8.11584 0.85712C6.92992 0.85754 5.79275 1.31411 4.95418 2.12652C4.11561 2.93893 3.64433 4.04072 3.6439 5.18964V5.39181C2.94777 5.43974 2.29084 5.72248 1.78752 6.19083C1.28419 6.65917 0.9663 7.28357 0.888812 7.95549L0.142822 14.5391C0.146507 15.4219 0.511625 16.2671 1.15806 16.8892C1.8045 17.5113 2.67956 17.8594 3.59073 17.8571H12.6951C13.6063 17.8594 14.4811 17.5113 15.1276 16.8892C15.774 16.2671 16.1391 15.4219 16.1428 14.5391L15.3954 7.95395ZM4.95717 5.1967C4.95707 4.79487 5.03859 4.39696 5.19724 4.02568C5.35589 3.65441 5.58862 3.31709 5.88187 3.03292C6.17512 2.74874 6.52311 2.52326 6.9063 2.36946C7.28949 2.21566 7.70026 2.13659 8.11504 2.13659C8.52991 2.1362 8.94068 2.21516 9.32397 2.36897C9.70726 2.52279 10.0555 2.74834 10.3486 3.03282C10.6424 3.31668 10.8753 3.65396 11.0342 4.02529C11.1931 4.39663 11.2748 4.79472 11.2745 5.1967V5.38232H4.95717V5.1967ZM5.58023 9.69741C5.47601 9.69751 5.3727 9.67771 5.2764 9.63912C5.18009 9.60053 5.09263 9.54387 5.01894 9.47248C4.94525 9.40109 4.88687 9.31635 4.84703 9.22305C4.8072 9.12976 4.78676 9.02976 4.78687 8.9288C4.78676 8.82783 4.8072 8.72784 4.84703 8.63454C4.88687 8.54124 4.94525 8.45641 5.01894 8.38502C5.09263 8.31363 5.18009 8.25707 5.2764 8.21848C5.3727 8.17989 5.47601 8.16008 5.58023 8.16019C5.68459 8.15998 5.78797 8.17966 5.88446 8.21819C5.98096 8.25671 6.06861 8.31325 6.14252 8.38463C6.21643 8.45601 6.27517 8.54079 6.31523 8.63415C6.35529 8.72752 6.37589 8.82769 6.37599 8.9288C6.37589 9.02991 6.35529 9.12998 6.31523 9.22335C6.27517 9.31671 6.21643 9.40149 6.14252 9.47287C6.06861 9.54425 5.98096 9.60079 5.88446 9.63931C5.78797 9.67784 5.68459 9.69762 5.58023 9.69741ZM10.7072 9.69741C10.6028 9.69762 10.4995 9.67784 10.403 9.63931C10.3065 9.60079 10.2188 9.54425 10.1449 9.47287C10.071 9.40149 10.0123 9.31671 9.97222 9.22335C9.93215 9.12998 9.91156 9.02991 9.91145 8.9288C9.91156 8.82769 9.93215 8.72752 9.97222 8.63415C10.0123 8.54079 10.071 8.45601 10.1449 8.38463C10.2188 8.31325 10.3065 8.25671 10.403 8.21819C10.4995 8.17966 10.6028 8.15998 10.7072 8.16019C10.8114 8.16008 10.9145 8.17989 11.0108 8.21848C11.1071 8.25707 11.1948 8.31363 11.2685 8.38502C11.3422 8.45641 11.4006 8.54124 11.4404 8.63454C11.4802 8.72784 11.5007 8.82783 11.5006 8.9288C11.5007 9.02976 11.4802 9.12976 11.4404 9.22305C11.4006 9.31635 11.3422 9.40109 11.2685 9.47248C11.1948 9.54387 11.1071 9.60053 11.0108 9.63912C10.9145 9.67771 10.8114 9.69751 10.7072 9.69741Z" fill="white"/>
</svg>
