<svg width="23" height="23" viewBox="0 0 23 23" fill="none" xmlns="http://www.w3.org/2000/svg">
<path d="M12.175 13.9721C11.754 14.3932 11.754 15.0758 12.175 15.4968C12.3856 15.7073 12.6615 15.8126 12.9374 15.8126C13.2133 15.8126 13.4892 15.7074 13.6997 15.4968L16.9339 12.2627C16.959 12.2374 16.983 12.211 17.0056 12.1834C17.0154 12.1714 17.024 12.1586 17.0332 12.1464C17.0451 12.1305 17.0573 12.1151 17.0683 12.0986C17.0784 12.0836 17.0871 12.068 17.0963 12.0526C17.1051 12.0378 17.1144 12.0234 17.1226 12.0081C17.131 11.9923 17.1382 11.9761 17.1458 11.96C17.1533 11.9442 17.1611 11.9287 17.1678 11.9126C17.1742 11.8969 17.1795 11.8809 17.1852 11.8649C17.1915 11.8476 17.198 11.8306 17.2034 11.813C17.2082 11.797 17.2118 11.7809 17.2158 11.7647C17.2203 11.7468 17.2253 11.729 17.229 11.7107C17.2327 11.6921 17.2349 11.6733 17.2376 11.6545C17.2399 11.6385 17.243 11.6227 17.2445 11.6064C17.248 11.5716 17.2498 11.5366 17.2499 11.5017C17.2499 11.5012 17.2499 11.5006 17.2499 11.5001C17.2499 11.4996 17.2499 11.4991 17.2499 11.4985C17.2498 11.4635 17.248 11.4286 17.2445 11.3938C17.243 11.3777 17.2399 11.3621 17.2377 11.3462C17.235 11.3273 17.2327 11.3083 17.229 11.2895C17.2254 11.2714 17.2205 11.2538 17.2159 11.2361C17.2118 11.2197 17.2082 11.2033 17.2034 11.1871C17.1981 11.1698 17.1916 11.153 17.1855 11.136C17.1796 11.1198 17.1743 11.1035 17.1677 11.0875C17.1612 11.0717 17.1534 11.0565 17.1461 11.0411C17.1384 11.0247 17.131 11.0081 17.1224 10.9919C17.1145 10.9772 17.1055 10.9632 17.097 10.9488C17.0875 10.933 17.0786 10.9169 17.0682 10.9015C17.0577 10.8857 17.046 10.871 17.0347 10.8558C17.025 10.8428 17.0159 10.8294 17.0055 10.8167C16.984 10.7906 16.9612 10.7655 16.9373 10.7414C16.9362 10.7403 16.9353 10.739 16.9341 10.7378L13.6997 7.50338C13.2787 7.08233 12.5961 7.08241 12.175 7.50338C11.754 7.92442 11.754 8.60702 12.175 9.02806L13.569 10.4221H1.07812C0.482712 10.4221 0 10.9048 0 11.5002C0 12.0956 0.482712 12.5783 1.07812 12.5783H13.5689L12.175 13.9721Z" fill="#D3D3D3"/>
<path d="M21.9219 1.79688H8.26562C7.67021 1.79688 7.1875 2.27959 7.1875 2.875V7.1875C7.1875 7.78291 7.67021 8.26562 8.26562 8.26562C8.86104 8.26562 9.34375 7.78291 9.34375 7.1875V3.95312H20.8438V19.0469H9.34375V15.8124C9.34375 15.217 8.86104 14.7343 8.26562 14.7343C7.67021 14.7343 7.1875 15.217 7.1875 15.8124V20.125C7.1875 20.7204 7.67021 21.2031 8.26562 21.2031H21.9219C22.5173 21.2031 23 20.7204 23 20.125V2.875C23 2.27952 22.5173 1.79688 21.9219 1.79688Z" fill="#D3D3D3"/>
</svg>
