<svg width="23" height="23" viewBox="0 0 23 23" fill="none" xmlns="http://www.w3.org/2000/svg">
<g clip-path="url(#clip0_14418_20)">
<path d="M21.9321 11.8507L18.5686 8.4873C18.1341 8.05267 17.4294 8.05267 16.9948 8.4873L16.3226 9.15949V1.1129C16.3226 0.498284 15.8243 0 15.2097 0H1.1129C0.498284 0 0 0.498284 0 1.1129V18.9195C0 19.5341 0.498284 20.0324 1.1129 20.0324H7.41935V21.8871C7.41935 22.5017 7.91764 23 8.53226 23H11.8957C12.1909 23 12.4739 22.8827 12.6826 22.674L21.9321 13.4245C22.3668 12.9899 22.3668 12.2853 21.9321 11.8507ZM2.22581 2.22581H14.0968V11.3853L7.74536 17.7366C7.72295 17.759 7.70225 17.7826 7.682 17.8065H2.22581V2.22581ZM11.4347 20.7742H9.64516V18.9846L17.7817 10.8481L19.5713 12.6376L11.4347 20.7742Z" fill="#D3D3D3"/>
</g>
<defs>
<clipPath id="clip0_14418_20">
<rect width="23" height="23" fill="white"/>
</clipPath>
</defs>
</svg>
