<svg width="26" height="26" viewBox="0 0 26 26" fill="none" xmlns="http://www.w3.org/2000/svg">
<circle cx="13" cy="13" r="13" fill="white"/>
<path d="M17.9709 7.28865L17.9709 7.28866L17.969 7.28647C17.5675 6.83285 16.9041 6.75819 16.4356 7.09546L16.4351 7.09578C15.9371 7.45322 15.7681 8.11673 16.0467 8.66843L16.0481 8.67116C16.1099 8.79602 16.21 8.92307 16.3295 9.04254L16.3313 9.04432C17.7678 10.4983 18.3446 12.2736 17.8342 14.3294L17.8341 14.3296C17.3467 16.2895 16.0917 17.5916 14.2445 18.1774L14.244 18.1776C12.4433 18.7458 10.7473 18.3828 9.29391 17.1611C8.0411 16.1107 7.39949 14.6968 7.37744 13.0317C7.35844 11.703 7.80427 10.528 8.62337 9.52526C8.69464 9.43745 8.7743 9.3663 8.83168 9.3155C8.8367 9.31105 8.84156 9.30676 8.84627 9.30259C8.90262 9.25275 8.93767 9.22174 8.96801 9.18826L8.96799 9.18824L8.97099 9.18501C9.30075 8.82905 9.38908 8.4255 9.24514 7.95206C9.09949 7.48532 8.79135 7.22032 8.32757 7.12623C7.98897 7.05827 7.68274 7.14287 7.38094 7.38522L7.37973 7.38619C6.77752 7.86596 6.35491 8.51602 5.96094 9.25152C5.29893 10.4886 5.00048 11.8241 5.04799 13.2449L5.048 13.2454C5.10388 14.9779 5.65227 16.5166 6.6867 17.8673C7.66896 19.1468 8.89542 20.0439 10.3794 20.4968L10.3797 20.4969C12.912 21.2722 15.2522 20.8674 17.3721 19.2077L17.3723 19.2075C18.7443 18.1348 19.6462 16.7093 20.0941 14.9677L20.0945 14.9659C20.2628 14.3236 20.336 13.6623 20.3391 12.9822C20.3075 10.8173 19.5663 8.97541 18.1077 7.44394L18.3973 7.16806L18.1085 7.44476C18.0771 7.41203 18.0258 7.3523 17.9948 7.3163C17.9834 7.30297 17.9747 7.29289 17.9709 7.28865Z" fill="#FE724C" stroke="white" stroke-width="0.8"/>
<path d="M11.5115 5.34013C11.5057 7.60061 11.5057 8.39459 11.5115 10.6549C11.5138 11.304 11.9833 11.817 12.5621 11.8748L12.5637 11.875C13.1758 11.9384 13.7313 11.5297 13.8569 10.8881L13.857 10.8878C13.8723 10.81 13.8758 10.7216 13.8758 10.6023C13.87 9.4929 13.87 9.11454 13.87 8.00534C13.87 7.59755 13.8703 7.28623 13.8707 7.00165C13.8713 6.50025 13.8718 6.08185 13.87 5.36499C13.8676 4.8642 13.6556 4.51093 13.2484 4.27734L13.2481 4.27717C12.8562 4.05195 12.4705 4.06008 12.0858 4.30242L12.0858 4.30243L12.0846 4.30316C11.7101 4.53727 11.5115 4.87805 11.5115 5.33909L11.5115 5.34013Z" fill="#FE724C" stroke="white" stroke-width="0.8"/>
</svg>
